<svg xmlns="http://www.w3.org/2000/svg" width="1600" height="900" viewBox="0 0 1600 900" fill="none">
  <rect width="1600" height="900" rx="36" fill="#030712"/>
  <rect x="90" y="90" width="1420" height="720" rx="28" fill="#111827" stroke="#334155"/>
  <rect x="140" y="140" width="780" height="620" rx="24" fill="#0F172A"/>
  <rect x="960" y="140" width="500" height="620" rx="24" fill="#0B1120"/>
  <rect x="180" y="190" width="240" height="16" rx="8" fill="#475569"/>
  <rect x="180" y="238" width="640" height="14" rx="7" fill="#334155"/>
  <rect x="180" y="278" width="590" height="14" rx="7" fill="#334155"/>
  <rect x="180" y="318" width="520" height="14" rx="7" fill="#334155"/>
  <rect x="1000" y="190" width="180" height="18" rx="9" fill="#22D3EE"/>
  <rect x="1000" y="242" width="340" height="120" rx="20" fill="#1E293B"/>
  <rect x="1000" y="392" width="340" height="120" rx="20" fill="#1E293B"/>
  <rect x="1000" y="542" width="340" height="120" rx="20" fill="#1E293B"/>
  <text x="120" y="860" fill="#E2E8F0" font-family="Arial, sans-serif" font-size="34">Replace with a real CodeVerse AI assistant panel screenshot</text>
</svg>
