<svg xmlns="http://www.w3.org/2000/svg" width="1600" height="900" viewBox="0 0 1600 900" fill="none">
  <rect width="1600" height="900" rx="36" fill="#020617"/>
  <rect x="72" y="72" width="1456" height="756" rx="28" fill="#0F172A" stroke="#334155"/>
  <rect x="120" y="120" width="320" height="660" rx="24" fill="#111827"/>
  <rect x="480" y="120" width="640" height="660" rx="24" fill="#0B1120"/>
  <rect x="1160" y="120" width="320" height="660" rx="24" fill="#111827"/>
  <rect x="160" y="164" width="240" height="18" rx="9" fill="#334155"/>
  <rect x="160" y="210" width="190" height="14" rx="7" fill="#1D4ED8"/>
  <rect x="520" y="168" width="180" height="18" rx="9" fill="#22D3EE"/>
  <rect x="520" y="220" width="420" height="12" rx="6" fill="#475569"/>
  <rect x="520" y="256" width="500" height="12" rx="6" fill="#475569"/>
  <rect x="520" y="292" width="460" height="12" rx="6" fill="#475569"/>
  <rect x="520" y="328" width="390" height="12" rx="6" fill="#475569"/>
  <rect x="1200" y="168" width="180" height="18" rx="9" fill="#A855F7"/>
  <rect x="1200" y="220" width="220" height="12" rx="6" fill="#475569"/>
  <rect x="1200" y="256" width="190" height="12" rx="6" fill="#475569"/>
  <text x="120" y="860" fill="#E2E8F0" font-family="Arial, sans-serif" font-size="34">Replace with a real CodeVerse AI editor screenshot</text>
</svg>
